<svg width="9" height="15" viewBox="0 0 9 15" fill="none" xmlns="http://www.w3.org/2000/svg">
<path d="M1.30213 1.19718C2.17021 0.399061 3.22979 -2.52223e-07 4.48085 -1.97538e-07C5.73192 -1.42852e-07 6.79149 0.399061 7.65957 1.19718C8.55319 1.99531 9 2.96948 9 4.11972L9 12.007C9 12.8286 8.66808 13.5329 8.00425 14.1197C7.36596 14.7066 6.6 15 5.70638 15C4.81277 15 4.04681 14.7066 3.40851 14.1197C2.77021 13.5329 2.45106 12.8286 2.45106 12.007L2.45106 5.6338C2.45106 5.11737 2.64255 4.67136 3.02553 4.29577C3.43404 3.92019 3.91915 3.73239 4.48085 3.73239C5.04255 3.73239 5.52766 3.92019 5.93617 4.29577C6.34468 4.67136 6.54894 5.11737 6.54894 5.6338L6.54894 11.2676L4.90213 11.2676L4.90213 5.56338C4.90213 5.35211 4.7617 5.24648 4.48085 5.24648C4.22553 5.24648 4.09787 5.35211 4.09787 5.56338L4.09787 12.007C4.09787 12.4061 4.25106 12.7582 4.55745 13.0634C4.88936 13.3685 5.27234 13.5211 5.70638 13.5211C6.14043 13.5211 6.5234 13.3685 6.85532 13.0634C7.18723 12.7582 7.35319 12.4061 7.35319 12.007L7.35319 4.11972C7.35319 3.39202 7.07234 2.76995 6.51064 2.25352C5.94894 1.73709 5.27234 1.47887 4.48085 1.47887C3.68936 1.47887 3.01277 1.73709 2.45106 2.25352C1.91489 2.76995 1.64681 3.39202 1.64681 4.11972L1.64681 11.2676L4.61151e-07 11.2676L7.73595e-07 4.11972C8.23874e-07 2.96948 0.434044 1.9953 1.30213 1.19718Z" fill="#58667C"/>
</svg>
